<?xml version="1.0" encoding="utf-8"?>
<!-- Generator: Adobe Illustrator 18.0.0, SVG Export Plug-In . SVG Version: 6.00 Build 0)  -->
<!DOCTYPE svg PUBLIC "-//W3C//DTD SVG 1.1//EN" "http://www.w3.org/Graphics/SVG/1.1/DTD/svg11.dtd">
<svg version="1.1" id="Layer_1" xmlns="http://www.w3.org/2000/svg" xmlns:xlink="http://www.w3.org/1999/xlink" x="0px" y="0px"
	 viewBox="0 0 1024 500" enable-background="new 0 0 1024 500" xml:space="preserve">
<linearGradient id="SVGID_1_" gradientUnits="userSpaceOnUse" x1="-0.5" y1="248.6074" x2="1024.5" y2="248.6074">
	<stop  offset="0" style="stop-color:#FFFFFF"/>
	<stop  offset="1" style="stop-color:#000000"/>
</linearGradient>
<rect y="-2.8" fill="#2AA0C3" stroke="url(#SVGID_1_)" stroke-miterlimit="10" width="1024" height="502.8"/>
<g id="Logo_1_">
	<circle id="Fundo" fill="#125F77" stroke="#125F77" stroke-width="3" stroke-miterlimit="10" cx="512.8" cy="249.5" r="235.3"/>
	<g id="Gota">
		<path fill="#FFFFFF" d="M512.8,435.3c-30.3,0-57.8-11.4-81.1-33.5c-19.7-18.1-31.5-41.7-35.8-68.1c-3.9-24.4-0.8-48,10.2-70
			c8.7-18.1,18.1-35.8,26.4-50.4c6.3-10.6,12.6-22,18.9-32.7c5.1-9.4,10.6-18.9,16.5-28.4c6.3-11.8,13.8-33.5,18.9-51.2
			c10.6-33.8,14.5-45.3,27.5-45.3c4.3,0,8.3,1.9,10.6,5.1l1.2,1.9l0.4,1.9c1.2,2.4,2.4,5.5,3.9,9.4c8.7,23.2,26,67.3,39.7,92
			l6.3,10.6c10.2,17.7,20.9,35.8,30.7,54.3c7.1,11.8,13.8,25.2,18.9,38.9c13.4,32.7,11.8,64.9-2.4,95.6
			c-18.5,37.8-49.2,61-90.1,68.1C526.6,434.5,520,435.3,512.8,435.3z M513.6,102.8c-0.8,2.4-1.2,4.3-1.9,6.3
			c-6.3,19.7-13.4,42.1-21.3,55.9c-5.5,9.4-10.6,19.7-16.5,28.4c-6.3,10.6-12.6,21.3-18.1,32.3c-8.3,14.5-16.9,31.5-25.2,49.2
			c-8.3,16.9-10.6,35.8-7.5,54.7c3.2,20.9,12.6,38.9,27.5,52.7c22.8,21.3,49.6,29.5,79.9,25.2c32.7-5.1,55.9-23.2,70.4-52.7
			c11.4-24,11.8-49.2,1.9-74.7c-5.1-12.6-11.4-24.4-17.7-36.6c-10.2-17.7-20.1-35.8-30.3-53.5l-6.3-10.6
			C535.6,158.7,523.1,128,513.6,102.8z"/>
		<path fill="#FFFFFF" d="M528.6,374.3c-1.9,11.8,24,14.9,38.9,1.9c17.7-14.5,27.5-41.7,17.7-46.1c-11.4-4.3-10.6,17.7-26,28.4
			C546.3,368.4,530.5,363.2,528.6,374.3z"/>
	</g>
	<path id="Seta" fill="#FFFFFF" stroke="#125F77" stroke-width="3" stroke-miterlimit="10" d="M692.3,97.2l6.7,23.2
		c0.8,3.2-1.9,6.3-5.5,5.5l-18.1-4.7c27.9,35.4,44.8,80.7,44.8,129.4c-0.5,111.4-90.2,203.9-201.1,207.4
		c-120,3.9-218.4-94.4-214.5-214.4C307.5,133.1,398,43.8,508.5,41.8c39.3-0.8,76.4,9.4,107.8,27.9c4.3,2.4,5.1,8.7,1.5,12.2
		l-10.2,10.6c-1.9,1.9-0.8,5.1,1.5,5.5l74.7,18.9c3.2,0.8,6.3-2.4,5.5-5.5l-20.9-74c-0.8-2.4-3.9-3.2-5.5-1.5l-13.4,13.8
		c-2.8,2.8-6.7,3.2-9.8,1.2c-39.7-25.2-86.6-38.9-136.9-37c-126.2,4.8-227.4,109.9-227.4,236.2c0,130.6,106.3,236.5,236.9,236.5
		c125.9-0.4,230.6-100.7,235.7-226.7C751,197.6,729.3,140.6,692.3,97.2z"/>
</g>
</svg>
