<?xml version="1.0" encoding="utf-8"?>
<!-- Generator: Adobe Illustrator 18.0.0, SVG Export Plug-In . SVG Version: 6.00 Build 0)  -->
<!DOCTYPE svg PUBLIC "-//W3C//DTD SVG 1.1//EN" "http://www.w3.org/Graphics/SVG/1.1/DTD/svg11.dtd">
<svg version="1.1" id="All" xmlns="http://www.w3.org/2000/svg" xmlns:xlink="http://www.w3.org/1999/xlink" x="0px" y="0px"
	 viewBox="254 -6 512 512" enable-background="new 254 -6 512 512" xml:space="preserve">
<g id="Logo_1_">
	<circle id="Fundo" fill="#0E5E76" stroke="#0E5E76" stroke-width="3" stroke-miterlimit="10" cx="510.9" cy="249.5" r="243.6"/>
	<g id="Gota">
		<path fill="#FFFFFF" d="M510.9,441.8c-31.4,0-59.8-11.8-83.9-34.6c-20.4-18.7-32.6-43.2-37-70.5c-4.1-25.3-0.8-49.7,10.6-72.5
			c9-18.7,18.7-37,27.3-52.2c6.5-11,13-22.8,19.5-33.8c5.3-9.8,11-19.5,17.1-29.4c6.5-12.2,14.2-34.6,19.5-53
			c11-35,15-46.9,28.5-46.9c4.5,0,8.6,2,11,5.3l1.2,2l0.4,2c1.2,2.5,2.5,5.7,4.1,9.8c9,24,26.9,69.7,41.1,95.3l6.5,11
			c10.6,18.3,21.6,37,31.8,56.2c7.4,12.2,14.2,26.1,19.5,40.3c13.8,33.8,12.2,67.2-2.5,99c-19.1,39.1-50.9,63.1-93.3,70.5
			C525.1,441,518.2,441.8,510.9,441.8z M511.7,97.6c-0.8,2.5-1.2,4.5-2,6.5c-6.5,20.4-13.8,43.6-22,57.8c-5.7,9.8-11,20.4-17.1,29.4
			c-6.5,11-13,22-18.7,33.4c-8.6,15-17.5,32.6-26.1,50.9c-8.6,17.5-11,37-7.8,56.6c3.3,21.6,13,40.3,28.5,54.6
			c23.6,22,51.4,30.6,82.7,26.1c33.8-5.3,57.8-24,72.9-54.6c11.8-24.9,12.2-50.9,2-77.4c-5.3-13-11.8-25.3-18.3-37.9
			c-10.6-18.3-20.8-37-31.4-55.4l-6.5-11C534.5,155.5,521.5,123.7,511.7,97.6z"/>
		<path fill="#FFFFFF" d="M527.2,378.7c-2,12.2,24.9,15.4,40.3,2c18.3-15,28.5-43.2,18.3-47.7c-11.8-4.5-11,18.3-26.9,29.4
			C545.5,372.6,529.2,367.2,527.2,378.7z"/>
	</g>
	<path id="Seta" fill="#FFFFFF" stroke="#0E5E76" stroke-width="3" stroke-miterlimit="10" d="M696.6,91.9l7,24
		c0.8,3.3-2,6.5-5.7,5.7l-18.7-4.9c28.9,36.6,46.4,83.5,46.4,134c-0.5,115.4-93.4,211.1-208.2,214.7
		c-124.2,4.1-226.1-97.8-222-221.9c2.9-114.5,96.6-206.9,211-209c40.7-0.8,79,9.8,111.6,28.9c4.5,2.5,5.3,9,1.6,12.6L609,87
		c-2,2-0.8,5.3,1.6,5.7l77.4,19.5c3.3,0.8,6.5-2.5,5.7-5.7l-21.6-76.6c-0.8-2.5-4.1-3.3-5.7-1.6l-13.8,14.2c-2.9,2.9-7,3.3-10.2,1.2
		C601.3,17.7,552.8,3.5,500.6,5.5c-130.6,5-235.4,113.8-235.4,244.5c0,135.2,110,244.8,245.2,244.8c130.3-0.4,238.7-104.2,244-234.6
		C757.4,195.8,735,136.7,696.6,91.9z"/>
</g>
</svg>
