<?xml version="1.0" encoding="utf-8"?>
<!-- Generator: Adobe Illustrator 18.0.0, SVG Export Plug-In . SVG Version: 6.00 Build 0)  -->
<!DOCTYPE svg PUBLIC "-//W3C//DTD SVG 1.1//EN" "http://www.w3.org/Graphics/SVG/1.1/DTD/svg11.dtd">
<svg version="1.1" id="All" xmlns="http://www.w3.org/2000/svg" xmlns:xlink="http://www.w3.org/1999/xlink" x="0px" y="0px"
	 viewBox="0 0 623 625" enable-background="new 0 0 623 625" width="623px" height="625px" xml:space="preserve">
<g id="Logo_1_">
	<circle id="Fundo" fill="#0E5E76" stroke="#0E5E76" stroke-width="3" stroke-miterlimit="10" cx="310.5" cy="311.3" r="304.5"/>
	<g id="Gota">
		<path fill="#FFFFFF" d="M310.5,551.6c-39.2,0-74.8-14.8-104.9-43.3c-25.5-23.4-40.7-54-46.3-88.1c-5.1-31.6-1-62.1,13.2-90.6
			c11.2-23.4,23.4-46.3,34.1-65.2c8.1-13.7,16.3-28.5,24.4-42.3c6.6-12.2,13.7-24.4,21.4-36.7c8.1-15.3,17.8-43.3,24.4-66.2
			c13.7-43.8,18.8-58.6,35.6-58.6c5.6,0,10.7,2.5,13.7,6.6l1.5,2.5l0.5,2.5c1.5,3.1,3.1,7.1,5.1,12.2c11.2,30,33.6,87.1,51.4,119.1
			l8.1,13.7c13.2,22.9,27,46.3,39.7,70.3c9.2,15.3,17.8,32.6,24.4,50.4c17.3,42.3,15.3,84-3.1,123.7
			c-23.9,48.9-63.6,78.9-116.6,88.1C328.3,550.6,319.7,551.6,310.5,551.6z M311.5,121.4c-1,3.1-1.5,5.6-2.5,8.1
			c-8.1,25.5-17.3,54.5-27.5,72.3c-7.1,12.2-13.7,25.5-21.4,36.7c-8.1,13.7-16.3,27.5-23.4,41.8c-10.7,18.8-21.9,40.7-32.6,63.6
			c-10.7,21.9-13.7,46.3-9.7,70.8c4.1,27,16.3,50.4,35.6,68.2c29.5,27.5,64.2,38.2,103.4,32.6c42.3-6.6,72.3-30,91.1-68.2
			c14.8-31.1,15.3-63.6,2.5-96.7c-6.6-16.3-14.8-31.6-22.9-47.4c-13.2-22.9-26-46.3-39.2-69.2l-8.1-13.7
			C340,193.7,323.8,154,311.5,121.4z"/>
		<path fill="#FFFFFF" d="M330.9,472.7c-2.5,15.3,31.1,19.3,50.4,2.5c22.9-18.8,35.6-54,22.9-59.6c-14.8-5.6-13.7,22.9-33.6,36.7
			C353.8,465.1,333.4,458.4,330.9,472.7z"/>
	</g>
	<path id="Seta" fill="#FFFFFF" stroke="#0E5E76" stroke-width="3" stroke-miterlimit="10" d="M542.7,114.2l8.7,30
		c1,4.1-2.5,8.1-7.1,7.1l-23.4-6.1c36.1,45.8,58,104.4,58,167.5c-0.6,144.2-116.7,263.9-260.2,268.4
		C163.4,586.2,36.1,458.9,41.2,303.7C44.8,160.6,161.9,45.1,304.9,42.5c50.9-1,98.8,12.2,139.5,36.1c5.6,3.1,6.6,11.2,2,15.8
		l-13.2,13.7c-2.5,2.5-1,6.6,2,7.1l96.7,24.4c4.1,1,8.1-3.1,7.1-7.1l-27-95.7c-1-3.1-5.1-4.1-7.1-2l-17.3,17.8
		c-3.6,3.6-8.7,4.1-12.7,1.5c-51.4-32.6-112-50.4-177.2-47.9C134.4,12.4,3.5,148.4,3.5,311.8c0,169,137.5,306,306.5,306
		c162.9-0.5,298.4-130.3,305-293.3C618.6,244.1,590.6,170.3,542.7,114.2z"/>
</g>
</svg>
