<?xml version="1.0" encoding="utf-8"?>
<!-- Generator: Adobe Illustrator 18.0.0, SVG Export Plug-In . SVG Version: 6.00 Build 0)  -->
<!DOCTYPE svg PUBLIC "-//W3C//DTD SVG 1.1//EN" "http://www.w3.org/Graphics/SVG/1.1/DTD/svg11.dtd">
<svg version="1.1" id="All" xmlns="http://www.w3.org/2000/svg" xmlns:xlink="http://www.w3.org/1999/xlink" x="0px" y="0px"
	 viewBox="0 0 512 512" enable-background="new 0 0 512 512" width="512px" height="512px" xml:space="preserve">
<g>
	<path fill="#0E5E76" d="M421.2,90.8C377,46.6,318.5,22.4,256,22.4S135,46.7,90.9,90.8S22.4,193.5,22.4,255.9s24.3,121,68.5,165.1
		s102.7,68.5,165.1,68.5s121-24.3,165.1-68.5s68.5-102.7,68.5-165.1S465.3,134.9,421.2,90.8z"/>
	<path fill="#0E5E76" d="M443.8,96.7l-8.1-9.5l-12.6-44.7l-0.1-0.4c-2.1-6.8-8.5-11.3-15.6-11.3c-4.3,0-8.5,1.8-11.4,4.8l-10.3,10.5
		C346.7,22.3,302,9.7,256.4,9.7c-3.2,0-6.5,0.1-9.8,0.2c-63.5,2.4-123.1,29.3-167.7,75.6S9.8,192.3,9.8,256
		c0,135.8,110.6,246.3,246.7,246.3l0,0l0,0c63.5-0.2,123.8-24.7,169.9-68.9c46.2-44.3,73-103.7,75.6-167.1
		C505,204,484.3,143.9,443.8,96.7z M337.4,107.7c1.8,5.5,6.2,9.6,11.8,10.7l54.5,13.8l3.6,4.6c26.8,33.9,41.5,76.4,41.5,119.7
		c-0.2,49.8-19.6,97.3-54.8,133.4c-35.1,36.1-81.6,56.9-131.2,58.5c-2.1,0.1-4.3,0.1-6.4,0.1c-52.4,0-101.4-20.8-138-58.6
		c-36.5-37.7-55.7-87.4-53.9-139.7V250c1.3-49.4,21.5-95.9,56.9-131S203.5,64.3,253,63.3c1.3,0,2.5,0,3.8,0
		c31.5,0,62.5,7.8,89.9,22.6l-5.5,5.7C337,95.7,335.5,101.9,337.4,107.7z M476.3,265.1c-2.3,56.7-26.4,109.9-67.7,149.5
		s-95.3,61.6-152.1,61.7c-121.8,0-220.9-98.9-220.9-220.5c0-56.9,22-111.1,61.9-152.5c39.9-41.5,93.3-65.5,150.1-67.7
		c2.9-0.1,5.9-0.2,8.8-0.2c42.1,0,83.2,11.9,118.9,34.6c3.3,2.1,7.2,3.3,11.1,3.3c5.5,0,10.7-2.1,14.7-6.2l1.6-1.6l12.1,42.9
		l-43.6-10.9c3.4-4.3,5.1-10,4.3-15.6c-0.9-6.3-4.6-11.9-10.1-15C332.6,47.8,295,37.6,256.6,37.6c-1.5,0-2.9,0-4.3,0
		c-55.9,1-108.9,23.4-149.1,63.1C63,140.5,40.1,193.3,38.7,249.4c-1,30.1,4.1,59.3,15,87c10.5,26.7,26.1,50.8,46.2,71.5
		c20.1,20.8,43.7,37.1,70.1,48.5c27.3,11.8,56.4,17.9,86.4,17.9c2.4,0,4.9,0,7.3-0.1c56.3-1.8,109.3-25.3,149-66.3
		s61.8-94.7,62-151.4c0-39.4-10.7-78.2-30.6-111.8c0.7-0.3,1.3-0.7,1.9-1.1C467.6,179.9,478.2,221.9,476.3,265.1z"/>
	<g>
		<path fill="#FFFFFF" d="M434.1,105.1l6.6,22.9c0.8,3.1-2,6.2-5.5,5.5l-17.9-4.7c27.5,34.9,44.2,79.6,44.2,127.7
			C461,366.6,372.4,457.8,263,461.2c-118.5,3.9-215.6-93.3-211.7-211.6C54,140.4,143.4,52.3,252.5,50.3
			c38.8-0.8,75.3,9.4,106.4,27.5c4.3,2.3,5.1,8.6,1.6,12l-10.1,10.4c-2,2-0.8,5.1,1.6,5.5l73.8,18.6c3.1,0.8,6.2-2.3,5.5-5.5
			l-20.6-73c-0.8-2.3-3.9-3.1-5.5-1.6L392,57.8c-2.7,2.7-6.6,3.1-9.8,1.2C343,34.2,296.8,20.6,247,22.6
			c-124.5,5-224.5,108.7-224.5,233.3c0,128.9,104.9,233.4,233.8,233.4c124.2-0.4,227.6-99.3,232.6-223.7
			C492,204.1,470.6,147.8,434.1,105.1z"/>
		<path fill="#FFFFFF" d="M246.2,98.4c-0.1,0.1-0.1,0.3-0.2,0.4c-0.1,0.2-0.2,0.4-0.2,0.6l-0.1,0.2c0,0.2-4.9,16.9-16.5,43.4
			c-10.7,24.7-29.7,63.3-58.9,107c-37.1,55.7-25.1,96.7-14.6,116.2c17.8,33.1,56.2,53.7,100.2,53.7s82.5-20.6,100.2-53.7
			c10.4-19.5,22.5-60.6-14.6-116.2c-29.2-43.8-48-82.3-58.8-107c-11.6-26.8-16.4-43.3-16.5-43.5c0-0.1,0-0.1-0.1-0.2
			c-0.1-0.2-0.1-0.4-0.2-0.6c-0.1-0.1-0.1-0.3-0.2-0.4s-0.1-0.3-0.2-0.4c-0.1-0.2-0.2-0.4-0.3-0.6c0-0.1-0.1-0.2-0.2-0.3
			c-0.1-0.2-0.2-0.4-0.4-0.6c-0.1-0.1-0.1-0.2-0.2-0.3c-0.1-0.2-0.3-0.4-0.4-0.6c-0.1-0.1-0.1-0.2-0.2-0.2l-0.1-0.1
			c-0.1-0.1-0.3-0.3-0.4-0.4s-0.2-0.2-0.3-0.3l-0.1-0.1c-0.1-0.1-0.3-0.3-0.4-0.4s-0.2-0.2-0.4-0.3l-0.1-0.1
			c-0.1-0.1-0.2-0.2-0.4-0.3c-0.1-0.1-0.3-0.2-0.4-0.3l-0.8,2.1l1.1-1.9c-0.1-0.1-0.3-0.2-0.4-0.2c-0.1-0.1-0.2-0.1-0.4-0.2
			c-0.2-0.1-0.4-0.2-0.6-0.3c-0.1,0-0.2-0.1-0.4-0.1c-0.2-0.1-0.4-0.2-0.6-0.2l-0.1-0.1c-0.1,0-0.2,0-0.2-0.1
			c-0.2-0.1-0.5-0.1-0.7-0.2c-0.1,0-0.2,0-0.3-0.1c-0.2,0-0.5-0.1-0.7-0.1c-0.1,0-0.3,0-0.4,0c-0.2,0-0.4,0-0.6,0
			c-0.1,0-0.3,0-0.4,0c-0.2,0-0.4,0-0.6,0c-0.2,0-0.3,0-0.5,0.1c-0.2,0-0.4,0.1-0.6,0.1s-0.3,0.1-0.5,0.1c-0.1,0-0.2,0-0.3,0.1
			c-0.1,0-0.2,0.1-0.2,0.1c-0.1,0-0.3,0.1-0.4,0.1c-0.2,0.1-0.4,0.1-0.6,0.2c-0.1,0-0.2,0.1-0.3,0.1c-0.2,0.1-0.5,0.2-0.7,0.3
			c-0.1,0-0.1,0.1-0.2,0.1c-0.2,0.1-0.5,0.3-0.7,0.5l-0.1,0.1c-0.2,0.2-0.5,0.3-0.7,0.5c-0.1,0.1-0.1,0.1-0.2,0.2
			c-0.2,0.2-0.4,0.3-0.6,0.5c-0.1,0.1-0.2,0.2-0.2,0.2l-0.1,0.1c-0.1,0.1-0.3,0.3-0.4,0.5c-0.1,0.1-0.2,0.2-0.3,0.3l-0.1,0.1
			c-0.1,0.1-0.2,0.3-0.3,0.4s-0.2,0.3-0.2,0.4l-0.1,0.2c-0.1,0.1-0.1,0.2-0.2,0.4c-0.1,0.1-0.1,0.3-0.2,0.4l2,0.9l-2.1-0.8
			C246.4,98.1,246.3,98.3,246.2,98.4z M256,398.6c-36.2,0-67.4-16.3-81.4-42.5c-14.2-26.5-9.4-60,13.6-94.3
			c34.9-52.3,56-97.4,67.8-127.3c11.9,30,32.9,75,67.8,127.3c22.9,34.4,27.7,67.9,13.6,94.3C323.4,382.4,292.3,398.6,256,398.6z"/>
		<path fill="#FFFFFF" d="M325.3,323.9c-0.7-0.2-1.5-0.3-2.1-0.3c-4.1,0-7.7,2.8-8.7,6.7c-7.7,30.9-38,31.5-39.3,31.5
			c-4.9,0-8.9,4-8.9,9s4,9,9,9c15.7,0,47.7-9.5,56.6-45.1c0.6-2.3,0.2-4.7-1-6.7C329.6,325.9,327.6,324.5,325.3,323.9z"/>
	</g>
	<path fill="#0E5E77" d="M446.4,127.9l-20.9-76.2v-0.1c-0.8-2.6-3-4.7-5.8-5.4c-2.6-0.6-5.3,0.2-6.9,2.1l-13.3,14.1
		c-1.3,1.4-2.9,1.6-4.3,0.6l-2.4,3.6l-20.1,16.7c-0.4-0.3-0.9-0.6-1.3-0.9l-4.3,7.5c0.9,0.5,1.5,1.5,1.6,2.5c0.2,1.2-0.2,2.4-1,3.1
		l-10.3,10.9c-2.1,2.1-2.7,5.1-1.8,7.8c0.9,2.6,2.9,4.5,5.5,5l74.6,19.3c0.7,0.2,1.4,0.3,2.1,0.3c2.2,0,4.5-0.9,6.2-2.6
		C446.2,134.1,447.2,130.9,446.4,127.9z"/>
	<g>
		<path fill="#FFFFFF" d="M359.1,77.9c4.3,2.3,5.1,8.6,1.6,12l-10.1,10.4c-2,2-0.8,5.1,1.6,5.5l73.8,18.6c3.1,0.8,6.2-2.3,5.5-5.5
			l-20.6-73c-0.8-2.3-3.9-3.1-5.5-1.6l-13.2,13.6c-2.7,2.7-6.6,3.1-9.8,1.2"/>
	</g>
</g>
</svg>
