<svg xmlns="http://www.w3.org/2000/svg" xmlns:xlink="http://www.w3.org/1999/xlink" version="1.1" id="Layer_1" x="0px" y="0px" viewBox="0 0 75.2 100" enable-background="new 0 0 75.2 100" xml:space="preserve" height="100px" width="100px">
<g>
	<path fill="#000000" d="M23.5,49.2l1.9-4.4c0.5-1.2,0-2.6-1.3-3.2c-1.2-0.5-2.6,0-3.2,1.3l-1.9,4.4c-0.5,1.2,0,2.6,1.3,3.2   c0.3,0.1,0.6,0.2,1,0.2C22.2,50.6,23.1,50.1,23.5,49.2z"/>
	<path fill="#000000" d="M12,69.6c-1.2-0.5-2.6,0-3.2,1.3l-3.4,7.9c-0.5,1.2,0,2.6,1.3,3.2c0.3,0.1,0.6,0.2,1,0.2   c0.9,0,1.8-0.5,2.2-1.5l3.4-7.9C13.8,71.5,13.3,70.1,12,69.6z"/>
	<path fill="#000000" d="M18.8,53.9c-1.2-0.5-2.6,0-3.2,1.3L12.3,63c-0.5,1.2,0,2.6,1.3,3.2c0.3,0.1,0.6,0.2,1,0.2   c0.9,0,1.8-0.5,2.2-1.5l3.4-7.9C20.6,55.8,20,54.4,18.8,53.9z"/>
	<path fill="#000000" d="M5.3,85.3c-1.2-0.5-2.6,0-3.2,1.3L0.2,91c-0.5,1.2,0,2.6,1.3,3.2c0.3,0.1,0.6,0.2,1,0.2   c0.9,0,1.8-0.5,2.2-1.5l1.9-4.4C7,87.3,6.5,85.8,5.3,85.3z"/>
	<path fill="#000000" d="M56.2,46l-1.9-4.4c-0.5-1.2-1.9-1.8-3.2-1.3c-1.2,0.5-1.8,1.9-1.3,3.2l1.9,4.4c0.4,0.9,1.3,1.5,2.2,1.5   c0.3,0,0.6-0.1,1-0.2C56.2,48.6,56.7,47.2,56.2,46z"/>
	<path fill="#000000" d="M69.8,77.4l-3.4-7.9c-0.5-1.2-1.9-1.8-3.2-1.3c-1.2,0.5-1.8,1.9-1.3,3.2l3.4,7.9c0.4,0.9,1.3,1.5,2.2,1.5   c0.3,0,0.6-0.1,1-0.2C69.7,80.1,70.3,78.7,69.8,77.4z"/>
	<path fill="#000000" d="M63,61.7l-3.4-7.9c-0.5-1.2-1.9-1.8-3.2-1.3c-1.2,0.5-1.8,1.9-1.3,3.2l3.4,7.9c0.4,0.9,1.3,1.5,2.2,1.5   c0.3,0,0.6-0.1,1-0.2C62.9,64.4,63.5,62.9,63,61.7z"/>
	<path fill="#000000" d="M75,89.7l-1.9-4.4c-0.5-1.2-1.9-1.8-3.2-1.3c-1.2,0.5-1.8,1.9-1.3,3.2l1.9,4.4c0.4,0.9,1.3,1.5,2.2,1.5   c0.3,0,0.6-0.1,1-0.2C75,92.4,75.6,90.9,75,89.7z"/>
	<path fill="#000000" d="M33.6,43.5c-1.3-0.2-2.6,0.7-2.8,2L30,50.2c-0.2,1.3,0.7,2.6,2,2.8c0.1,0,0.3,0,0.4,0c1.2,0,2.2-0.8,2.4-2   l0.8-4.7C35.8,44.9,34.9,43.7,33.6,43.5z"/>
	<path fill="#000000" d="M28.6,73.6c-1.3-0.2-2.5,0.7-2.8,2L24.4,84c-0.2,1.3,0.7,2.5,2,2.8c0.1,0,0.3,0,0.4,0c1.2,0,2.2-0.8,2.4-2   l1.4-8.4C30.8,75,29.9,73.8,28.6,73.6z"/>
	<path fill="#000000" d="M31.4,56.7c-1.3-0.2-2.5,0.7-2.8,2l-1.4,8.4c-0.2,1.3,0.7,2.5,2,2.8c0.1,0,0.3,0,0.4,0c1.2,0,2.2-0.8,2.4-2   l1.4-8.4C33.6,58.1,32.7,56.9,31.4,56.7z"/>
	<path fill="#000000" d="M25.7,90.5c-1.3-0.2-2.6,0.7-2.8,2l-0.8,4.7c-0.2,1.3,0.7,2.6,2,2.8c0.1,0,0.3,0,0.4,0c1.2,0,2.2-0.8,2.4-2   l0.8-4.7C27.9,91.9,27.1,90.7,25.7,90.5z"/>
	<path fill="#000000" d="M44,53c1.3-0.2,2.2-1.5,2-2.8l-0.8-4.7c-0.2-1.3-1.4-2.2-2.8-2c-1.3,0.2-2.2,1.5-2,2.8l0.8,4.7   c0.2,1.2,1.2,2,2.4,2C43.8,53,43.9,53,44,53z"/>
	<path fill="#000000" d="M46.9,69.9c1.3-0.2,2.2-1.5,2-2.8l-1.4-8.4c-0.2-1.3-1.5-2.2-2.8-2c-1.3,0.2-2.2,1.5-2,2.8l1.4,8.4   c0.2,1.2,1.2,2,2.4,2C46.6,69.9,46.7,69.9,46.9,69.9z"/>
	<path fill="#000000" d="M49.7,86.8c1.3-0.2,2.2-1.5,2-2.8l-1.4-8.4c-0.2-1.3-1.4-2.2-2.8-2c-1.3,0.2-2.2,1.5-2,2.8l1.4,8.4   c0.2,1.2,1.2,2,2.4,2C49.4,86.8,49.5,86.8,49.7,86.8z"/>
	<path fill="#000000" d="M50.3,90.5c-1.3,0.2-2.2,1.5-2,2.8l0.8,4.7c0.2,1.2,1.2,2,2.4,2c0.1,0,0.3,0,0.4,0c1.3-0.2,2.2-1.5,2-2.8   L53,92.5C52.8,91.1,51.6,90.3,50.3,90.5z"/>
	<path fill="#000000" d="M48.2,22.9c-1.5-0.6-3.1-1-4.8-1.3c-0.6-0.1-1.3,0.3-1.4,1c-0.1,0.7,0.3,1.3,1,1.4c1.6,0.3,3.1,0.7,4.4,1.2   c0.1,0.1,0.3,0.1,0.4,0.1c0.5,0,0.9-0.3,1.1-0.8C49.1,23.8,48.8,23.1,48.2,22.9z"/>
	<path fill="#000000" d="M19.5,26.8c-0.9,1.1-1.3,2.3-1.3,3.6c0,0.7,0.2,1.5,0.5,2.2c0.2,0.4,0.6,0.7,1.1,0.7c0.2,0,0.3,0,0.5-0.1   c0.6-0.3,0.9-1,0.6-1.6c-0.2-0.4-0.3-0.8-0.3-1.2c0-0.7,0.3-1.4,0.8-2.1c0.4-0.5,0.3-1.3-0.2-1.7C20.6,26.2,19.9,26.3,19.5,26.8z"/>
	<path fill="#000000" d="M33.5,23.5c0,0,0.1,0,0.1,0c1.5-0.1,3.1-0.2,4.7-0.1c0.7,0,1.2-0.5,1.3-1.2c0-0.7-0.5-1.2-1.2-1.3   c-1.7-0.1-3.4,0-5,0.1c-0.7,0.1-1.2,0.6-1.1,1.3C32.4,23,32.9,23.5,33.5,23.5z"/>
	<path fill="#000000" d="M29.9,22.8c-0.2-0.6-0.8-1-1.5-0.9c-1.8,0.4-3.4,1-4.8,1.7c-0.6,0.3-0.8,1-0.6,1.6c0.2,0.4,0.6,0.7,1.1,0.7   c0.2,0,0.4,0,0.5-0.1c1.2-0.6,2.7-1.1,4.3-1.5C29.7,24.1,30.1,23.4,29.9,22.8z"/>
	<path fill="#000000" d="M25.6,27.6c-1.3,1.1-2,2.3-2,3.7c0,0.5,0.1,0.9,0.2,1.4c0.2,0.5,0.6,0.8,1.1,0.8c0.1,0,0.3,0,0.4-0.1   c0.6-0.2,0.9-0.9,0.7-1.5c-0.1-0.2-0.1-0.4-0.1-0.5c0-0.7,0.6-1.4,1.1-1.8c0.5-0.4,0.6-1.2,0.2-1.7S26.1,27.1,25.6,27.6z"/>
	<path fill="#000000" d="M42.9,25.2c-1.4-0.4-2.8-0.6-4.4-0.7c-0.6,0-1.2,0.5-1.3,1.1c0,0.7,0.5,1.2,1.1,1.3   c1.4,0.1,2.7,0.3,3.9,0.6c0.1,0,0.2,0,0.3,0c0.5,0,1-0.4,1.2-0.9C43.9,26,43.5,25.3,42.9,25.2z"/>
	<path fill="#000000" d="M34.3,27c0.7-0.1,1.1-0.7,1.1-1.3c-0.1-0.7-0.7-1.1-1.3-1.1c-1.6,0.2-3,0.5-4.4,0.9c-0.6,0.2-1,0.9-0.8,1.5   c0.2,0.5,0.6,0.8,1.1,0.8c0.1,0,0.2,0,0.4-0.1C31.6,27.4,32.9,27.1,34.3,27z"/>
	<path fill="#000000" d="M39.2,27.8c-0.6-0.1-1.3,0.3-1.4,0.9c-0.1,0.7,0.3,1.3,0.9,1.4c1.7,0.3,2.2,1,2.2,1.1l1.2,0.3l-1.2-0.3   c-0.1,0.6,0.3,1.3,0.9,1.4c0.1,0,0.2,0,0.3,0c0.5,0,1-0.4,1.2-0.9c0-0.2,0.1-0.4,0.1-0.5C43.3,29.6,41.7,28.3,39.2,27.8z"/>
	<path fill="#000000" d="M35.9,28.7c-0.1-0.7-0.8-1.1-1.4-1c-2.5,0.5-4.1,1.7-4.3,3.2c-0.1,0.7,0.4,1.3,1.1,1.3c0,0,0.1,0,0.1,0   c0.6,0,1.1-0.5,1.2-1.1c0-0.2,0.6-0.8,2.4-1.1C35.6,30,36.1,29.3,35.9,28.7z"/>
	<path fill="#000000" d="M38.5,32.4c-0.5,0.1-1.2,0.1-1.7,0.1c-0.7,0-1.4-0.1-2-0.2c-0.6-0.1-1.3,0.3-1.4,0.9   c-0.1,0.6,0.3,1.3,0.9,1.4c0.8,0.2,1.7,0.3,2.5,0.3c0,0,0,0,0,0c0.7,0,1.4-0.1,2.1-0.2c0.7-0.1,1.1-0.7,1-1.4   C39.7,32.7,39.1,32.3,38.5,32.4z"/>
	<path fill="#000000" d="M60.7,29v-6.9h0c-0.9-5.7-9.3-10.1-20.5-10.9V1.2C40.2,0.5,39.7,0,39,0s-1.2,0.5-1.2,1.2v9.9   c-0.3,0-2.8,0-3.6,0V1.4c0-0.7-0.5-1.2-1.2-1.2s-1.2,0.5-1.2,1.2v10c-11,1.1-19,5.9-19,11.7h2.5c0-4.5,8.6-9.3,21.5-9.3   s21.5,4.8,21.5,9.3l0,0.7c-3.8-4-11.9-6.6-21.5-6.6c-9.6,0-17.7,2.7-21.5,6.6v-0.7h-2.4V29c0,0,0,0,0,0c0,6.7,10.5,11.9,23.9,11.9   S60.7,35.7,60.7,29z M31,38.1c-0.8-0.1-1.7-0.2-2.5-0.4c0-0.1,0.1-0.1,0.1-0.1c0.1-0.4,0-0.8-0.3-1.1c0.9,0.4,1.9,0.7,3,1   C31.1,37.6,31,37.8,31,38.1C31,38.1,31,38.1,31,38.1z M40.6,38.3c-0.8,0.1-1.7,0.1-2.5,0.1c0-0.2-0.1-0.4-0.2-0.5   c0.9,0,1.8-0.1,2.6-0.2c0.1,0,0.1,0,0.2-0.1C40.6,37.9,40.5,38.1,40.6,38.3z M52.7,35.3c1.2-1,2-2.1,2.4-3.3c0.1-0.3,0.1-0.6,0-0.9   c0.2-0.2,0.3-0.5,0.3-0.8c0-1.8-0.9-3.5-2.7-5c-0.5-0.4-1.3-0.3-1.7,0.2c-0.4,0.5-0.3,1.3,0.2,1.7C52,27.9,53,29,53,30.3   c0,0.2,0,0.3,0.1,0.5c-0.1,0.1-0.2,0.3-0.3,0.4c-0.4,1-1.3,2-2.7,2.9c-0.6,0.4-0.7,1.1-0.4,1.7c0.1,0.2,0.4,0.4,0.6,0.5   c-0.9,0.3-1.8,0.6-2.8,0.9c0-0.1,0-0.2,0-0.4c-0.2-0.6-0.7-0.9-1.3-0.8c1-0.6,1.9-1.2,2.5-1.9c0.4-0.5,0.4-1.2-0.1-1.6   c0.7,0,1.2-0.5,1.2-1.2c0-1.1-0.5-2.8-2.9-4.3c-0.6-0.4-1.3-0.2-1.7,0.4c-0.4,0.6-0.2,1.3,0.4,1.7c0.7,0.4,1.7,1.3,1.7,2.3   c0,0.3,0.1,0.6,0.4,0.9c-0.3,0-0.7,0.1-0.9,0.4c-0.6,0.7-1.7,1.4-3,1.9c-0.6,0.2-0.9,0.9-0.7,1.6c0.1,0.3,0.3,0.5,0.6,0.6   c-0.7,0.2-1.5,0.3-2.3,0.4c-0.1,0-0.1,0-0.2,0.1c0.1-0.2,0.1-0.4,0.1-0.6c-0.1-0.7-0.7-1.1-1.4-1c-1.1,0.2-2.2,0.2-3.4,0.2l-0.6,0   c-0.7,0-1.2,0.5-1.2,1.2c0,0.2,0,0.3,0.1,0.5c-0.7,0-1.4-0.1-2.1-0.2c0.1-0.1,0.2-0.3,0.2-0.5c0.1-0.7-0.3-1.3-0.9-1.4   c-1.4-0.3-2.7-0.7-3.7-1.2c-0.6-0.3-1.3-0.1-1.6,0.5c-0.2,0.5-0.1,1,0.2,1.4c-1.3-0.4-2.5-0.9-3.5-1.5c-0.6-0.3-1.3-0.2-1.7,0.4   c-0.2,0.3-0.2,0.7-0.1,1c-4.1-1.7-6.7-4.1-6.7-6.8v0h0v0c0-5.1,9.9-9.4,21.5-9.4c11.7,0,21.5,4.3,21.5,9.5   C58.3,31.4,56.2,33.6,52.7,35.3z"/>
</g>
</svg>