<svg xmlns="http://www.w3.org/2000/svg" xmlns:xlink="http://www.w3.org/1999/xlink" version="1.1" id="Your_Icon" x="0px" y="0px" width="94.771px" height="100px" viewBox="0 0 94.771 100" enable-background="new 0 0 94.771 100" xml:space="preserve">
<path fill="#000000" d="M92.587,87.797L33.039,37.481l6.937-8.21c0.655,0.137,1.315,0.209,1.975,0.209  c4.522,0,7.338-3.271,7.457-3.41l3.318-3.93c0.563-0.667,0.677-1.598,0.312-2.387c-0.367-0.79-1.169-1.295-2.039-1.295  c-4.795,0-7.325-2.451-11.917-6.901c-1.912-1.853-4.079-3.952-6.83-6.277c-2.464-2.082-5.029-3.137-7.622-3.137  c-4.524,0-7.345,3.271-7.463,3.41l-3.314,3.924c-0.562,0.666-0.679,1.597-0.314,2.386c0.367,0.791,1.167,1.295,2.036,1.295  c0.631,0,1.219,0.049,1.78,0.132l-5.39,6.384l-0.688-0.581c-1.107-0.934-2.525-1.444-4-1.444c-2.069,0-4.07,0.963-5.493,2.644  c-1.282,1.521-1.92,3.461-1.761,5.326c0.146,1.683,0.916,3.188,2.169,4.238l81.308,68.7c1.093,0.929,2.515,1.443,3.991,1.443  c2.073,0,4.077-0.968,5.499-2.654c1.077-1.271,1.709-2.859,1.774-4.461C94.847,90.888,94.054,89.035,92.587,87.797z M29.622,34.593  l-2.471-2.086l6.045-7.148c0.374,0.327,0.734,0.646,1.132,0.983c0.463,0.391,0.931,0.707,1.4,1.026L29.622,34.593z M27.542,20.108  c0.732,0.708,1.516,1.462,2.34,2.241l-6.148,7.269l-2.466-2.084L27.542,20.108z M20.584,8.444c0.016-0.02,1.612-1.826,4.046-1.826  c1.507,0,3.1,0.698,4.734,2.079c2.635,2.227,4.743,4.27,6.604,6.073c3.705,3.59,6.633,6.426,10.716,7.591l-0.682,0.806  c-0.015,0.018-1.645,1.84-4.052,1.84c-1.508,0-3.1-0.701-4.734-2.082c-2.639-2.229-4.75-4.273-6.611-6.078  c-3.703-3.59-6.631-6.426-10.709-7.588L20.584,8.444z M21.74,15.033c0.833,0.553,1.663,1.219,2.543,1.999l-6.434,7.614l-2.467-2.087  L21.74,15.033z M89.57,94.462c-0.581,0.688-1.365,1.064-2.078,1.064c-0.41,0-0.795-0.125-1.103-0.387L5.071,26.431  c-0.846-0.71-0.782-2.167,0.129-3.248c0.581-0.687,1.365-1.06,2.078-1.06c0.413,0,0.802,0.124,1.112,0.387l81.312,68.706  C90.545,91.928,90.483,93.383,89.57,94.462z"/>
<path fill="#000000" d="M61.001,13.691c-3.775,0-6.845-3.069-6.845-6.845C54.156,3.072,57.226,0,61.001,0s6.847,3.072,6.847,6.847  C67.848,10.622,64.776,13.691,61.001,13.691z M61.001,4.475c-1.307,0-2.37,1.063-2.37,2.372c0,1.307,1.063,2.371,2.37,2.371  c1.309,0,2.373-1.064,2.373-2.371C63.374,5.538,62.31,4.475,61.001,4.475z"/>
<path fill="#000000" d="M68.22,41.481c-5.213,0-9.454-4.24-9.454-9.453c0-5.211,4.241-9.451,9.454-9.451  c5.21,0,9.45,4.24,9.45,9.451C77.67,37.241,73.43,41.481,68.22,41.481z M68.22,27.052c-2.747,0-4.979,2.232-4.979,4.977  c0,2.746,2.232,4.979,4.979,4.979c2.743,0,4.977-2.232,4.977-4.979C73.196,29.284,70.963,27.052,68.22,27.052z"/>
</svg>