<?xml version="1.0" encoding="utf-8"?>
<!-- Generator: Adobe Illustrator 18.0.0, SVG Export Plug-In . SVG Version: 6.00 Build 0)  -->
<!DOCTYPE svg PUBLIC "-//W3C//DTD SVG 1.1//EN" "http://www.w3.org/Graphics/SVG/1.1/DTD/svg11.dtd">
<svg version="1.1" id="Layer_1" xmlns="http://www.w3.org/2000/svg" xmlns:xlink="http://www.w3.org/1999/xlink" x="0px" y="0px"
	 viewBox="0 0 96 96" enable-background="new 0 0 96 96" xml:space="preserve">
<path d="M49.8,76.2c-4.8,0-9.2-1.8-12.9-5.3c-3.1-2.9-5-6.6-5.7-10.8c-0.6-3.9-0.1-7.6,1.6-11.1c1.4-2.9,2.9-5.7,4.2-8
	c1-1.7,2-3.5,3-5.2c0.8-1.5,1.7-3,2.6-4.5c1-1.9,2.2-5.3,3-8.1c1.7-5.4,2.3-7.2,4.4-7.2c0.7,0,1.3,0.3,1.7,0.8l0.2,0.3l0.1,0.3
	c0.2,0.4,0.4,0.9,0.6,1.5c1.4,3.7,4.1,10.7,6.3,14.6l1,1.7c1.6,2.8,3.3,5.7,4.9,8.6c1.1,1.9,2.2,4,3,6.2c2.1,5.2,1.9,10.3-0.4,15.2
	c-2.9,6-7.8,9.7-14.3,10.8C52,76.1,50.9,76.2,49.8,76.2z M49.9,23.4c-0.1,0.4-0.2,0.7-0.3,1c-1,3.1-2.1,6.7-3.4,8.9
	c-0.9,1.5-1.7,3.1-2.6,4.5c-1,1.7-2,3.4-2.9,5.1c-1.3,2.3-2.7,5-4,7.8c-1.3,2.7-1.7,5.7-1.2,8.7c0.5,3.3,2,6.2,4.4,8.4
	c3.6,3.4,7.9,4.7,12.7,4c5.2-0.8,8.9-3.7,11.2-8.4c1.8-3.8,1.9-7.8,0.3-11.9c-0.8-2-1.8-3.9-2.8-5.8c-1.6-2.8-3.2-5.7-4.8-8.5
	l-1-1.7C53.4,32.3,51.4,27.4,49.9,23.4z"/>
<path d="M52.3,66.5c-0.3,1.9,3.8,2.4,6.2,0.3c2.8-2.3,4.4-6.6,2.8-7.3c-1.8-0.7-1.7,2.8-4.1,4.5C55.1,65.6,52.6,64.8,52.3,66.5z"/>
</svg>
